<svg width="168" height="27" viewBox="0 0 168 27" fill="none" xmlns="http://www.w3.org/2000/svg">
<path d="M14.5376 26.9596V23.1406H22.4544L23.9473 26.9596H14.5376Z" fill="white"/>
<path d="M14.5903 21.6129V17.8389H20.1944L21.7798 21.6129H14.5903Z" fill="white"/>
<path d="M14.5903 16.3114V12.5374H18.2165L19.7181 16.3114H14.5903Z" fill="white"/>
<path d="M14.5905 11.0996V7.32561L14.5376 3.10229L17.6566 11.0996H14.5905Z" fill="white"/>
<path d="M9.4624 26.9596V23.1406H1.54559L0.0526773 26.9596H9.4624Z" fill="white"/>
<path d="M9.40967 21.6129V17.8389H3.80563L2.22021 21.6129H9.40967Z" fill="white"/>
<path d="M9.40967 16.3114V12.5374H5.78353L4.2819 16.3114H9.40967Z" fill="white"/>
<path d="M9.40954 11.0996V7.32561L9.4624 3.10229L6.34345 11.0996H9.40954Z" fill="white"/>
<path d="M33.016 24C32.04 24 31.28 23.744 30.736 23.232C30.192 22.72 29.92 22 29.92 21.072V10.08C29.92 9.184 30.184 8.48 30.712 7.968C31.256 7.456 32.008 7.2 32.968 7.2H40.408C41.032 7.2 41.344 7.456 41.344 7.968C41.344 8.192 41.264 8.368 41.104 8.496C40.944 8.624 40.712 8.688 40.408 8.688H32.992C32.608 8.688 32.296 8.816 32.056 9.072C31.832 9.328 31.72 9.664 31.72 10.08V14.664H38.584C39.208 14.664 39.52 14.92 39.52 15.432C39.52 15.672 39.432 15.856 39.256 15.984C39.096 16.112 38.872 16.176 38.584 16.176H31.72V21.12C31.72 21.536 31.832 21.872 32.056 22.128C32.296 22.384 32.608 22.512 32.992 22.512H40.936C41.56 22.512 41.872 22.76 41.872 23.256C41.872 23.496 41.784 23.68 41.608 23.808C41.448 23.936 41.224 24 40.936 24H33.016ZM48.5174 24.24C47.7494 24.24 47.0934 24.008 46.5494 23.544C46.0214 23.08 45.5814 22.36 45.2294 21.384L42.2534 13.152C42.2214 13.024 42.2054 12.936 42.2054 12.888C42.2054 12.712 42.2614 12.552 42.3734 12.408C42.4854 12.248 42.6294 12.136 42.8054 12.072C42.8854 12.04 43.0054 12.024 43.1654 12.024C43.3574 12.024 43.5174 12.072 43.6454 12.168C43.7894 12.264 43.8934 12.4 43.9574 12.576L46.9814 20.904C47.2374 21.592 47.4774 22.072 47.7014 22.344C47.9254 22.616 48.1974 22.752 48.5174 22.752C48.8374 22.752 49.1094 22.624 49.3334 22.368C49.5734 22.096 49.8134 21.624 50.0534 20.952L53.0774 12.576C53.2214 12.208 53.4854 12.024 53.8694 12.024C54.1574 12.024 54.3894 12.112 54.5654 12.288C54.7574 12.448 54.8534 12.648 54.8534 12.888C54.8534 12.936 54.8374 13.024 54.8054 13.152L51.7814 21.432C51.4294 22.408 50.9894 23.12 50.4614 23.568C49.9334 24.016 49.2854 24.24 48.5174 24.24ZM61.4134 24.24C59.3334 24.24 57.7254 23.704 56.5894 22.632C55.4534 21.56 54.8854 20.04 54.8854 18.072C54.8854 16.184 55.4614 14.704 56.6134 13.632C57.7654 12.544 59.3414 12 61.3414 12C62.5734 12 63.6694 12.2 64.6294 12.6C65.5894 12.984 66.3334 13.536 66.8614 14.256C67.4054 14.96 67.6774 15.768 67.6774 16.68C67.6774 17.352 67.4854 17.872 67.1014 18.24C66.7334 18.608 66.2214 18.792 65.5654 18.792H56.6854C56.6854 20.024 57.1014 20.992 57.9334 21.696C58.7654 22.384 59.9254 22.728 61.4134 22.728C62.3254 22.728 63.1094 22.632 63.7654 22.44C64.4214 22.232 65.0374 21.904 65.6134 21.456C65.9174 21.2 66.1654 21.072 66.3574 21.072C66.5014 21.072 66.6374 21.136 66.7654 21.264C66.9894 21.456 67.1014 21.656 67.1014 21.864C67.1014 22.024 67.0054 22.2 66.8134 22.392C66.1574 23.016 65.3894 23.48 64.5094 23.784C63.6294 24.088 62.5974 24.24 61.4134 24.24ZM65.0374 17.376C65.3254 17.376 65.5414 17.32 65.6854 17.208C65.8294 17.08 65.9014 16.856 65.9014 16.536C65.9014 15.96 65.7094 15.44 65.3254 14.976C64.9414 14.512 64.3974 14.152 63.6934 13.896C63.0054 13.64 62.2214 13.512 61.3414 13.512C59.9174 13.512 58.7894 13.864 57.9574 14.568C57.1414 15.256 56.7334 16.192 56.7334 17.376H65.0374ZM70.3208 24.24C70.0488 24.24 69.8328 24.16 69.6728 24C69.5288 23.824 69.4568 23.584 69.4568 23.28V12.96C69.4568 12.656 69.5288 12.424 69.6728 12.264C69.8168 12.088 70.0328 12 70.3208 12C70.5928 12 70.8008 12.088 70.9448 12.264C71.1048 12.424 71.1848 12.656 71.1848 12.96V14.376C71.7768 13.592 72.4888 13 73.3208 12.6C74.1688 12.2 75.0968 12 76.1048 12C77.6248 12 78.7928 12.424 79.6088 13.272C80.4408 14.12 80.8568 15.336 80.8568 16.92V23.28C80.8568 23.584 80.7768 23.824 80.6168 24C80.4568 24.16 80.2408 24.24 79.9688 24.24C79.6808 24.24 79.4648 24.16 79.3208 24C79.1768 23.824 79.1048 23.584 79.1048 23.28V16.92C79.1048 14.648 78.0328 13.512 75.8888 13.512C74.4808 13.512 73.3448 13.928 72.4808 14.76C71.6328 15.592 71.2088 16.696 71.2088 18.072V23.28C71.2088 23.568 71.1288 23.8 70.9688 23.976C70.8248 24.152 70.6088 24.24 70.3208 24.24ZM91.1607 21.624C91.3367 21.768 91.4247 21.936 91.4247 22.128C91.4247 22.288 91.3527 22.48 91.2087 22.704C90.8727 23.168 90.4087 23.544 89.8167 23.832C89.2247 24.104 88.6167 24.24 87.9927 24.24C86.9367 24.24 86.1047 23.928 85.4967 23.304C84.8887 22.68 84.5847 21.824 84.5847 20.736V13.704H83.2887C82.6487 13.704 82.3287 13.456 82.3287 12.96C82.3287 12.736 82.4087 12.56 82.5687 12.432C82.7447 12.304 82.9847 12.24 83.2887 12.24H84.5847V8.136C84.5847 7.832 84.6567 7.6 84.8007 7.44C84.9607 7.264 85.1847 7.176 85.4727 7.176C85.7447 7.176 85.9527 7.264 86.0967 7.44C86.2567 7.6 86.3367 7.832 86.3367 8.136V12.24H89.6007C89.8887 12.24 90.1127 12.304 90.2727 12.432C90.4487 12.544 90.5367 12.72 90.5367 12.96C90.5367 13.456 90.2247 13.704 89.6007 13.704H86.3367V20.88C86.3367 22.112 86.9127 22.728 88.0647 22.728C88.4327 22.728 88.7687 22.656 89.0727 22.512C89.3767 22.368 89.6807 22.136 89.9847 21.816C90.2247 21.56 90.4567 21.432 90.6807 21.432C90.8247 21.432 90.9847 21.496 91.1607 21.624ZM99.6261 24.24C99.3541 24.24 99.1381 24.16 98.9781 24C98.8181 23.824 98.7381 23.584 98.7381 23.28V10.08C98.7381 9.184 99.0021 8.48 99.5301 7.968C100.074 7.456 100.826 7.2 101.786 7.2H109.226C109.85 7.2 110.162 7.456 110.162 7.968C110.162 8.192 110.082 8.368 109.922 8.496C109.762 8.624 109.53 8.688 109.226 8.688H101.81C101.426 8.688 101.114 8.816 100.874 9.072C100.65 9.328 100.538 9.664 100.538 10.08V14.904H107.402C108.026 14.904 108.338 15.16 108.338 15.672C108.338 15.912 108.25 16.096 108.074 16.224C107.914 16.352 107.69 16.416 107.402 16.416H100.538V23.28C100.538 23.584 100.458 23.824 100.298 24C100.138 24.16 99.9141 24.24 99.6261 24.24ZM112.428 9.456C112.076 9.456 111.772 9.344 111.516 9.12C111.276 8.88 111.156 8.592 111.156 8.256C111.156 7.92 111.276 7.632 111.516 7.392C111.772 7.152 112.076 7.032 112.428 7.032C112.78 7.032 113.084 7.16 113.34 7.416C113.612 7.656 113.748 7.936 113.748 8.256C113.748 8.576 113.612 8.856 113.34 9.096C113.084 9.336 112.78 9.456 112.428 9.456ZM112.428 24.24C112.156 24.24 111.94 24.16 111.78 24C111.636 23.824 111.564 23.584 111.564 23.28V12.96C111.564 12.656 111.636 12.424 111.78 12.264C111.94 12.088 112.156 12 112.428 12C112.716 12 112.932 12.088 113.076 12.264C113.236 12.424 113.316 12.656 113.316 12.96V23.28C113.316 23.584 113.236 23.824 113.076 24C112.932 24.16 112.716 24.24 112.428 24.24ZM117.06 24.24C116.788 24.24 116.572 24.16 116.412 24C116.268 23.824 116.196 23.584 116.196 23.28V12.96C116.196 12.656 116.268 12.424 116.412 12.264C116.556 12.088 116.772 12 117.06 12C117.332 12 117.54 12.088 117.684 12.264C117.844 12.424 117.924 12.656 117.924 12.96V14.376C118.516 13.592 119.228 13 120.06 12.6C120.908 12.2 121.836 12 122.844 12C124.364 12 125.532 12.424 126.348 13.272C127.18 14.12 127.596 15.336 127.596 16.92V23.28C127.596 23.584 127.516 23.824 127.356 24C127.196 24.16 126.98 24.24 126.708 24.24C126.42 24.24 126.204 24.16 126.06 24C125.916 23.824 125.844 23.584 125.844 23.28V16.92C125.844 14.648 124.772 13.512 122.628 13.512C121.22 13.512 120.084 13.928 119.22 14.76C118.372 15.592 117.948 16.696 117.948 18.072V23.28C117.948 23.568 117.868 23.8 117.708 23.976C117.564 24.152 117.348 24.24 117.06 24.24ZM135.644 24.24C133.66 24.24 132.092 23.704 130.94 22.632C129.804 21.544 129.236 20.064 129.236 18.192C129.236 17.008 129.484 15.952 129.98 15.024C130.492 14.08 131.228 13.344 132.188 12.816C133.164 12.272 134.332 12 135.692 12C136.844 12 137.82 12.216 138.62 12.648C139.436 13.08 140.156 13.68 140.78 14.448L140.804 6.744C140.804 6.44 140.876 6.208 141.02 6.048C141.18 5.872 141.404 5.784 141.692 5.784C141.964 5.784 142.172 5.872 142.316 6.048C142.476 6.208 142.556 6.44 142.556 6.744V23.28C142.556 23.584 142.476 23.824 142.316 24C142.172 24.16 141.964 24.24 141.692 24.24C141.42 24.24 141.204 24.16 141.044 24C140.884 23.824 140.804 23.584 140.804 23.28V21.744C140.244 22.56 139.524 23.184 138.644 23.616C137.78 24.032 136.78 24.24 135.644 24.24ZM135.788 22.728C137.34 22.728 138.564 22.32 139.46 21.504C140.356 20.672 140.804 19.544 140.804 18.12C140.804 17.176 140.572 16.36 140.108 15.672C139.66 14.968 139.052 14.432 138.284 14.064C137.532 13.696 136.708 13.512 135.812 13.512C134.308 13.512 133.132 13.944 132.284 14.808C131.436 15.656 131.012 16.784 131.012 18.192C131.012 19.696 131.428 20.832 132.26 21.6C133.092 22.352 134.268 22.728 135.788 22.728ZM150.812 24.24C148.732 24.24 147.124 23.704 145.988 22.632C144.852 21.56 144.284 20.04 144.284 18.072C144.284 16.184 144.86 14.704 146.012 13.632C147.164 12.544 148.74 12 150.74 12C151.972 12 153.068 12.2 154.028 12.6C154.988 12.984 155.732 13.536 156.26 14.256C156.804 14.96 157.076 15.768 157.076 16.68C157.076 17.352 156.884 17.872 156.5 18.24C156.132 18.608 155.62 18.792 154.964 18.792H146.084C146.084 20.024 146.5 20.992 147.332 21.696C148.164 22.384 149.324 22.728 150.812 22.728C151.724 22.728 152.508 22.632 153.164 22.44C153.82 22.232 154.436 21.904 155.012 21.456C155.316 21.2 155.564 21.072 155.756 21.072C155.9 21.072 156.036 21.136 156.164 21.264C156.388 21.456 156.5 21.656 156.5 21.864C156.5 22.024 156.404 22.2 156.212 22.392C155.556 23.016 154.788 23.48 153.908 23.784C153.028 24.088 151.996 24.24 150.812 24.24ZM154.436 17.376C154.724 17.376 154.94 17.32 155.084 17.208C155.228 17.08 155.3 16.856 155.3 16.536C155.3 15.96 155.108 15.44 154.724 14.976C154.34 14.512 153.796 14.152 153.092 13.896C152.404 13.64 151.62 13.512 150.74 13.512C149.316 13.512 148.188 13.864 147.356 14.568C146.54 15.256 146.132 16.192 146.132 17.376H154.436ZM159.719 24.24C159.447 24.24 159.231 24.16 159.071 24C158.927 23.824 158.855 23.584 158.855 23.28V12.96C158.855 12.656 158.927 12.424 159.071 12.264C159.215 12.088 159.431 12 159.719 12C159.991 12 160.199 12.088 160.343 12.264C160.503 12.424 160.583 12.656 160.583 12.96V14.4C161.671 12.96 163.175 12.24 165.095 12.24H165.695C165.999 12.24 166.239 12.312 166.415 12.456C166.591 12.584 166.679 12.768 166.679 13.008C166.679 13.248 166.591 13.432 166.415 13.56C166.239 13.688 165.999 13.752 165.695 13.752H165.023C163.663 13.752 162.583 14.144 161.783 14.928C160.999 15.696 160.607 16.744 160.607 18.072V23.28C160.607 23.568 160.527 23.8 160.367 23.976C160.223 24.152 160.007 24.24 159.719 24.24Z" fill="white"/>
</svg>
